<?xml version="1.0" standalone="no"?><!DOCTYPE svg PUBLIC "-//W3C//DTD SVG 1.1//EN" "http://www.w3.org/Graphics/SVG/1.1/DTD/svg11.dtd"><svg t="1698744676536" class="icon" viewBox="0 0 1024 1024" version="1.1" xmlns="http://www.w3.org/2000/svg" p-id="6012" width="16" height="16" xmlns:xlink="http://www.w3.org/1999/xlink"><path d="M817.38 255.79L525.52 120.28a31.862 31.862 0 0 0-15.97-2.05c-3.23 0.23-6.47 0.96-9.63 2.23l-294.87 135.5a32.01 32.01 0 0 0-20.07 29.69v319.82c0 5.07 1.21 10.07 3.52 14.59 1.19 2.33 36.8 57.63 92.61 118.61 32.9 35.95 68.59 66.58 106.08 91.05 37.17 24.26 74.17 42.47 114.35 54.36 4.16 1.23 8.35 1.56 12.39 1.12 3.27 0.1 6.62-0.31 9.95-1.3 40.17-11.89 81.18-30.11 118.35-54.36 37.49-24.47 73.18-55.1 106.08-91.05 55.81-60.98 84.42-116.29 85.61-118.61 2.31-4.52 3.52-9.52 3.52-14.59V285.48a31.975 31.975 0 0 0-20.06-29.69z m-43.93 332.62c0 5.8-1.57 11.48-4.55 16.46-11.36 18.91-34.58 54.38-69.01 91.76-29.2 31.7-60.66 58.59-93.52 79.91-29.57 19.19-62.36 33.9-93.91 43.94-31.36-10.03-59.97-24.68-89.37-43.76-32.86-21.33-64.32-48.21-93.52-79.91-34.43-37.38-64.65-72.85-76.01-91.76a31.91 31.91 0 0 1-4.55-16.46V308.9c0-0.98 0.59-1.86 1.5-2.22L512.94 184.2l259 122.3c0.91 0.36 1.5 1.25 1.5 2.22v279.69z" p-id="6013" fill="#1afa29"></path><path d="M458.66 607.79l-79.89-71.77c-13.15-11.81-14.23-32.04-2.42-45.19 11.81-13.15 32.04-14.23 45.19-2.42l56.07 50.37 148-148.54c12.47-12.52 32.74-12.56 45.25-0.08 12.52 12.47 12.56 32.73 0.08 45.25l-170.6 171.22c-11.37 11.42-29.69 11.93-41.68 1.16z" p-id="6014" fill="#1afa29"></path></svg>